,
Brought to you by  http://www.scenetime.com/signup.php
 
 Hottest scene tracker on the net !!!   
 
No fake torrents from scenebalance 
shame on those who comment fake before downloading my torrents

    seed back for speed


 



...................................NFO:.................................................Pirates of the Caribbean On Stranger Tides 2011 TS XViD AC3 -SCR0N
   General
      Complete name : Pirates of the Caribbean On Stranger Tides 2011 TS XViD AC3 -SCR0N.avi
      Format : AVI
      Format/Info : Audio Video Interleave
      File size : 1.32 GiB
      Duration : 2h 7mn
      Overall bit rate : 1 484 Kbps

   Video #0
      ID : 0
      Format : MPEG-4 Visual
      Format profile : AdvancedSimple@L5
      Format settings, BVOP : Yes
      Format settings, QPel : No
      Format settings, GMC : No warppoints
      Format settings, Matrix : Default (H.263)
      Muxing mode : Packed bitstream
      Codec ID : XVID
      Codec ID/Hint : XviD
      Duration : 2h 7mn
      Bit rate : 1 156 Kbps
      Width : 720 pixels
      Height : 288 pixels
      Display aspect ratio : 2.500
      Frame rate : 25.000 fps
      Resolution : 24 bits
      Colorimetry : 4:2:0
      Scan type : Progressive
      Bits/(Pixel*Frame) : 0.223
      Stream size : 1.03 GiB (78%)

   Audio #1
      ID : 1
      Format : AC-3
      Format/Info : Audio Coding 3
      Codec ID : 2000
      Duration : 2h 7mn
      Bit rate mode : Constant
      Bit rate : 320 Kbps
      Channel(s) : 2 channels
      Channel positions : L R
      Sampling rate : 48.0 KHz
      Stream size : 292 MiB (22%)
      Alignment : Aligned on interleaves
      Interleave, duration : 64 ms (1.60 video frames)
      Interleave, preload duration : 192 ms